@startuml
'https://plantuml.com/class-diagram


hide circle
skinparam classAttributeIconSize 0


class ProductsController {
    +findAllCatalog(): List<ProductCatalog>
}

class ProductsService {
    +findAllCatalog(): List<ProductCatalog>
}



interface ProductsRepository <<interface>>{
    +findAllCatalog(): List<ProductCatalog>

}


class Product {
    - name
    - description
    - SKU
    - barCode
}

class Image {
    - idImage
    - SKU
    - path
}


ProductsController ..> ProductsService: uses
ProductsService ..> ProductsRepository: uses
ProductsRepository "1" --> "0..*" Product:  records
Product "*" -right-> "*" Image: has


@enduml